REM DIRINDEX 1\2\4\18,1\2\4\19,1\2\5\20,1\2\5\21,1\2\6\22,1\2\6\23,1\2\7\24,1\2\7\25,1\2\8\26,1\2\8\27,1\2\9\28,1\2\9\29,1\2\10\30,1\3\11\31,1\3\11\32,1\3\11\33,1\3\11\34,1\3\11\35,1\3\12\36,1\3\12\37,1\3\12\38,1\3\12\39,1\3\12\40,1\3\13\41,1\3\13\42,1\3\13\43,1\3\13\44,1\3\13\45,1\3\14\46,1\3\14\47,1\3\14\48,1\3\14\49,1\3\15\50,1\3\15\51,1\3\15\52,1\3\15\53,1\3\15\54,1\3\16\55,1\3\16\56,1\3\16\57,1\3\16\58,1\3\16\59,1\3\17\60,1\3\17\61
REM DIRNAME "folder01","folder02","folder03","folder04","folder05","folder06","folder07","folder08","folder09","folder10","folder11","folder12","folder13","folder14","folder15","folder16","folder17","folder18","folder19","folder20","folder21","folder22","folder23","folder24","folder25","folder26","folder27","folder28","folder29","folder30","folder31","folder32","folder33","folder34","folder35","folder36","folder37","folder38","folder39","folder40","folder41","folder42","folder43","folder44","folder45","folder46","folder47","folder48","folder49","folder50","folder51","folder52","folder53","folder54","folder55","folder56","folder57","folder58","folder59","folder60","folder61"
TITLE ""
FILE "TOEIC LR Kinnojyukugo_01.mp3" MP3
  TRACK 01 AUDIO
    TITLE "0:"
    INDEX 01 00:00:00
  TRACK 02 AUDIO
    TITLE "18:cjc160_0001"
    INDEX 01 00:00:12
  TRACK 03 AUDIO
    TITLE "0:"
    INDEX 01 00:01:25
  TRACK 04 AUDIO
    TITLE "19:cjc160_0002"
    INDEX 01 00:01:65
  TRACK 05 AUDIO
    TITLE "0:"
    INDEX 01 00:03:52
  TRACK 06 AUDIO
    TITLE "18:cjc160_0003"
    INDEX 01 00:04:53
  TRACK 07 AUDIO
    TITLE "0:"
    INDEX 01 00:06:01
  TRACK 08 AUDIO
    TITLE "19:cjc160_0004"
    INDEX 01 00:06:38
  TRACK 09 AUDIO
    TITLE "0:"
    INDEX 01 00:08:20
  TRACK 10 AUDIO
    TITLE "18:cjc160_0005"
    INDEX 01 00:09:25
  TRACK 11 AUDIO
    TITLE "0:"
    INDEX 01 00:10:54
  TRACK 12 AUDIO
    TITLE "19:cjc160_0006"
    INDEX 01 00:11:20
  TRACK 13 AUDIO
    TITLE "0:"
    INDEX 01 00:14:36
  TRACK 14 AUDIO
    TITLE "18:cjc160_0007"
    INDEX 01 00:15:35
  TRACK 15 AUDIO
    TITLE "0:"
    INDEX 01 00:16:60
  TRACK 16 AUDIO
    TITLE "19:cjc160_0008"
    INDEX 01 00:17:24
  TRACK 17 AUDIO
    TITLE "0:"
    INDEX 01 00:21:01
  TRACK 18 AUDIO
    TITLE "18:cjc160_0009"
    INDEX 01 00:22:02
  TRACK 19 AUDIO
    TITLE "0:"
    INDEX 01 00:23:43
  TRACK 20 AUDIO
    TITLE "19:cjc160_0010"
    INDEX 01 00:24:05
  TRACK 21 AUDIO
    TITLE "0:"
    INDEX 01 00:26:37
  TRACK 22 AUDIO
    TITLE "18:cjc160_0011"
    INDEX 01 00:27:37
  TRACK 23 AUDIO
    TITLE "0:"
    INDEX 01 00:28:50
  TRACK 24 AUDIO
    TITLE "19:cjc160_0012"
    INDEX 01 00:29:14
  TRACK 25 AUDIO
    TITLE "0:"
    INDEX 01 00:31:17
  TRACK 26 AUDIO
    TITLE "18:cjc160_0013"
    INDEX 01 00:32:18
  TRACK 27 AUDIO
    TITLE "0:"
    INDEX 01 00:33:57
  TRACK 28 AUDIO
    TITLE "19:cjc160_0014"
    INDEX 01 00:34:21
  TRACK 29 AUDIO
    TITLE "0:"
    INDEX 01 00:36:39
  TRACK 30 AUDIO
    TITLE "18:cjc160_0015"
    INDEX 01 00:37:41
  TRACK 31 AUDIO
    TITLE "0:"
    INDEX 01 00:38:56
  TRACK 32 AUDIO
    TITLE "19:cjc160_0016"
    INDEX 01 00:39:18
  TRACK 33 AUDIO
    TITLE "0:"
    INDEX 01 00:41:35
  TRACK 34 AUDIO
    TITLE "18:cjc160_0017"
    INDEX 01 00:42:36
  TRACK 35 AUDIO
    TITLE "0:"
    INDEX 01 00:43:34
  TRACK 36 AUDIO
    TITLE "19:cjc160_0018"
    INDEX 01 00:44:02
  TRACK 37 AUDIO
    TITLE "0:"
    INDEX 01 00:46:03
  TRACK 38 AUDIO
    TITLE "18:cjc160_0019"
    INDEX 01 00:47:02
  TRACK 39 AUDIO
    TITLE "0:"
    INDEX 01 00:48:19
  TRACK 40 AUDIO
    TITLE "19:cjc160_0020"
    INDEX 01 00:48:58
  TRACK 41 AUDIO
    TITLE "0:"
    INDEX 01 00:51:12
  TRACK 42 AUDIO
    TITLE "18:cjc160_0021"
    INDEX 01 00:52:13
  TRACK 43 AUDIO
    TITLE "0:"
    INDEX 01 00:53:16
  TRACK 44 AUDIO
    TITLE "19:cjc160_0022"
    INDEX 01 00:53:71
  TRACK 45 AUDIO
    TITLE "0:"
    INDEX 01 00:55:41
  TRACK 46 AUDIO
    TITLE "18:cjc160_0023"
    INDEX 01 00:56:40
  TRACK 47 AUDIO
    TITLE "0:"
    INDEX 01 00:57:59
  TRACK 48 AUDIO
    TITLE "19:cjc160_0024"
    INDEX 01 00:58:21
  TRACK 49 AUDIO
    TITLE "0:"
    INDEX 01 01:01:28
  TRACK 50 AUDIO
    TITLE "18:cjc160_0025"
    INDEX 01 01:02:27
  TRACK 51 AUDIO
    TITLE "0:"
    INDEX 01 01:03:48
  TRACK 52 AUDIO
    TITLE "19:cjc160_0026"
    INDEX 01 01:04:12
  TRACK 53 AUDIO
    TITLE "0:"
    INDEX 01 01:06:41
  TRACK 54 AUDIO
    TITLE "18:cjc160_0027"
    INDEX 01 01:07:44
  TRACK 55 AUDIO
    TITLE "0:"
    INDEX 01 01:08:63
  TRACK 56 AUDIO
    TITLE "19:cjc160_0028"
    INDEX 01 01:09:25
  TRACK 57 AUDIO
    TITLE "0:"
    INDEX 01 01:10:66
  TRACK 58 AUDIO
    TITLE "18:cjc160_0029"
    INDEX 01 01:11:73
  TRACK 59 AUDIO
    TITLE "0:"
    INDEX 01 01:13:11
  TRACK 60 AUDIO
    TITLE "19:cjc160_0030"
    INDEX 01 01:13:50
  TRACK 61 AUDIO
    TITLE "0:"
    INDEX 01 01:15:73
  TRACK 62 AUDIO
    TITLE "18:cjc160_0031"
    INDEX 01 01:16:72
  TRACK 63 AUDIO
    TITLE "0:"
    INDEX 01 01:18:34
  TRACK 64 AUDIO
    TITLE "19:cjc160_0032"
    INDEX 01 01:18:75
  TRACK 65 AUDIO
    TITLE "0:"
    INDEX 01 01:21:22
  TRACK 66 AUDIO
    TITLE "18:cjc160_0033"
    INDEX 01 01:22:26
  TRACK 67 AUDIO
    TITLE "0:"
    INDEX 01 01:23:25
  TRACK 68 AUDIO
    TITLE "19:cjc160_0034"
    INDEX 01 01:23:63
  TRACK 69 AUDIO
    TITLE "0:"
    INDEX 01 01:25:67
  TRACK 70 AUDIO
    TITLE "18:cjc160_0035"
    INDEX 01 01:26:65
  TRACK 71 AUDIO
    TITLE "0:"
    INDEX 01 01:28:09
  TRACK 72 AUDIO
    TITLE "19:cjc160_0036"
    INDEX 01 01:28:44
  TRACK 73 AUDIO
    TITLE "0:"
    INDEX 01 01:31:46
  TRACK 74 AUDIO
    TITLE "18:cjc160_0037"
    INDEX 01 01:32:44
  TRACK 75 AUDIO
    TITLE "0:"
    INDEX 01 01:33:75
  TRACK 76 AUDIO
    TITLE "19:cjc160_0038"
    INDEX 01 01:34:37
  TRACK 77 AUDIO
    TITLE "0:"
    INDEX 01 01:37:61
  TRACK 78 AUDIO
    TITLE "18:cjc160_0039"
    INDEX 01 01:38:60
  TRACK 79 AUDIO
    TITLE "0:"
    INDEX 01 01:40:06
  TRACK 80 AUDIO
    TITLE "19:cjc160_0040"
    INDEX 01 01:40:43
  TRACK 81 AUDIO
    TITLE "0:"
    INDEX 01 01:42:31
  TRACK 82 AUDIO
    TITLE "18:cjc160_0041"
    INDEX 01 01:43:30
  TRACK 83 AUDIO
    TITLE "0:"
    INDEX 01 01:45:05
  TRACK 84 AUDIO
    TITLE "19:cjc160_0042"
    INDEX 01 01:45:52
  TRACK 85 AUDIO
    TITLE "0:"
    INDEX 01 01:48:15
  TRACK 86 AUDIO
    TITLE "18:cjc160_0043"
    INDEX 01 01:49:19
  TRACK 87 AUDIO
    TITLE "0:"
    INDEX 01 01:50:26
  TRACK 88 AUDIO
    TITLE "19:cjc160_0044"
    INDEX 01 01:50:65
  TRACK 89 AUDIO
    TITLE "0:"
    INDEX 01 01:53:64
  TRACK 90 AUDIO
    TITLE "18:cjc160_0045"
    INDEX 01 01:54:71
  TRACK 91 AUDIO
    TITLE "0:"
    INDEX 01 01:56:15
  TRACK 92 AUDIO
    TITLE "19:cjc160_0046"
    INDEX 01 01:56:52
  TRACK 93 AUDIO
    TITLE "0:"
    INDEX 01 01:59:23
  TRACK 94 AUDIO
    TITLE "18:cjc160_0047"
    INDEX 01 02:00:23
  TRACK 95 AUDIO
    TITLE "0:"
    INDEX 01 02:01:38
  TRACK 96 AUDIO
    TITLE "19:cjc160_0048"
    INDEX 01 02:02:02
  TRACK 97 AUDIO
    TITLE "0:"
    INDEX 01 02:05:39
  TRACK 98 AUDIO
    TITLE "18:cjc160_0049"
    INDEX 01 02:06:41
  TRACK 99 AUDIO
    TITLE "0:"
    INDEX 01 02:08:02
  TRACK 100 AUDIO
    TITLE "19:cjc160_0050"
    INDEX 01 02:08:40
  TRACK 101 AUDIO
    TITLE "0:"
    INDEX 01 02:11:07
  TRACK 102 AUDIO
    TITLE "18:cjc160_0051"
    INDEX 01 02:12:08
  TRACK 103 AUDIO
    TITLE "0:"
    INDEX 01 02:13:39
  TRACK 104 AUDIO
    TITLE "19:cjc160_0052"
    INDEX 01 02:14:03
  TRACK 105 AUDIO
    TITLE "0:"
    INDEX 01 02:16:08
  TRACK 106 AUDIO
    TITLE "18:cjc160_0053"
    INDEX 01 02:17:07
  TRACK 107 AUDIO
    TITLE "0:"
    INDEX 01 02:18:42
  TRACK 108 AUDIO
    TITLE "19:cjc160_0054"
    INDEX 01 02:19:08
  TRACK 109 AUDIO
    TITLE "0:"
    INDEX 01 02:20:70
  TRACK 110 AUDIO
    TITLE "18:cjc160_0055"
    INDEX 01 02:21:72
  TRACK 111 AUDIO
    TITLE "0:"
    INDEX 01 02:23:12
  TRACK 112 AUDIO
    TITLE "19:cjc160_0056"
    INDEX 01 02:23:51
  TRACK 113 AUDIO
    TITLE "0:"
    INDEX 01 02:25:58
  TRACK 114 AUDIO
    TITLE "18:cjc160_0057"
    INDEX 01 02:26:57
  TRACK 115 AUDIO
    TITLE "0:"
    INDEX 01 02:28:07
  TRACK 116 AUDIO
    TITLE "19:cjc160_0058"
    INDEX 01 02:28:44
  TRACK 117 AUDIO
    TITLE "0:"
    INDEX 01 02:30:71
  TRACK 118 AUDIO
    TITLE "18:cjc160_0059"
    INDEX 01 02:31:70
  TRACK 119 AUDIO
    TITLE "0:"
    INDEX 01 02:33:12
  TRACK 120 AUDIO
    TITLE "19:cjc160_0060"
    INDEX 01 02:33:49
  TRACK 121 AUDIO
    TITLE "0:"
    INDEX 01 02:35:46
  TRACK 122 AUDIO
    TITLE "18:cjc160_0061"
    INDEX 01 02:36:48
  TRACK 123 AUDIO
    TITLE "0:"
    INDEX 01 02:37:61
  TRACK 124 AUDIO
    TITLE "19:cjc160_0062"
    INDEX 01 02:38:23
  TRACK 125 AUDIO
    TITLE "0:"
    INDEX 01 02:40:44
  TRACK 126 AUDIO
    TITLE "18:cjc160_0063"
    INDEX 01 02:41:41
  TRACK 127 AUDIO
    TITLE "0:"
    INDEX 01 02:42:70
  TRACK 128 AUDIO
    TITLE "19:cjc160_0064"
    INDEX 01 02:43:32
  TRACK 129 AUDIO
    TITLE "0:"
    INDEX 01 02:46:07
  TRACK 130 AUDIO
    TITLE "18:cjc160_0065"
    INDEX 01 02:47:04
  TRACK 131 AUDIO
    TITLE "0:"
    INDEX 01 02:48:14
  TRACK 132 AUDIO
    TITLE "19:cjc160_0066"
    INDEX 01 02:48:53
  TRACK 133 AUDIO
    TITLE "0:"
    INDEX 01 02:52:02
  TRACK 134 AUDIO
    TITLE "18:cjc160_0067"
    INDEX 01 02:53:03
  TRACK 135 AUDIO
    TITLE "0:"
    INDEX 01 02:54:55
  TRACK 136 AUDIO
    TITLE "19:cjc160_0068"
    INDEX 01 02:55:18
  TRACK 137 AUDIO
    TITLE "0:"
    INDEX 01 02:58:34
  TRACK 138 AUDIO
    TITLE "18:cjc160_0069"
    INDEX 01 02:59:41
  TRACK 139 AUDIO
    TITLE "0:"
    INDEX 01 03:00:64
  TRACK 140 AUDIO
    TITLE "19:cjc160_0070"
    INDEX 01 03:01:28
  TRACK 141 AUDIO
    TITLE "0:"
    INDEX 01 03:03:68
  TRACK 142 AUDIO
    TITLE "18:cjc160_0071"
    INDEX 01 03:04:68
  TRACK 143 AUDIO
    TITLE "0:"
    INDEX 01 03:06:37
  TRACK 144 AUDIO
    TITLE "19:cjc160_0072"
    INDEX 01 03:06:74
  TRACK 145 AUDIO
    TITLE "0:"
    INDEX 01 03:09:37
  TRACK 146 AUDIO
    TITLE "18:cjc160_0073"
    INDEX 01 03:10:35
  TRACK 147 AUDIO
    TITLE "0:"
    INDEX 01 03:11:46
  TRACK 148 AUDIO
    TITLE "19:cjc160_0074"
    INDEX 01 03:12:06
  TRACK 149 AUDIO
    TITLE "0:"
    INDEX 01 03:14:68
  TRACK 150 AUDIO
    TITLE "18:cjc160_0075"
    INDEX 01 03:15:67
  TRACK 151 AUDIO
    TITLE "0:"
    INDEX 01 03:17:45
  TRACK 152 AUDIO
    TITLE "19:cjc160_0076"
    INDEX 01 03:18:07
  TRACK 153 AUDIO
    TITLE "0:"
    INDEX 01 03:20:35
  TRACK 154 AUDIO
    TITLE "18:cjc160_0077"
    INDEX 01 03:21:46
  TRACK 155 AUDIO
    TITLE "0:"
    INDEX 01 03:22:69
  TRACK 156 AUDIO
    TITLE "19:cjc160_0078"
    INDEX 01 03:23:34
  TRACK 157 AUDIO
    TITLE "0:"
    INDEX 01 03:25:29
  TRACK 158 AUDIO
    TITLE "18:cjc160_0079"
    INDEX 01 03:26:28
  TRACK 159 AUDIO
    TITLE "0:"
    INDEX 01 03:27:53
  TRACK 160 AUDIO
    TITLE "19:cjc160_0080"
    INDEX 01 03:28:15
  TRACK 161 AUDIO
    TITLE "0:"
    INDEX 01 03:30:38
  TRACK 162 AUDIO
    TITLE "18:cjc160_0081"
    INDEX 01 03:31:39
  TRACK 163 AUDIO
    TITLE "0:"
    INDEX 01 03:32:62
  TRACK 164 AUDIO
    TITLE "19:cjc160_0082"
    INDEX 01 03:33:28
  TRACK 165 AUDIO
    TITLE "0:"
    INDEX 01 03:35:11
  TRACK 166 AUDIO
    TITLE "18:cjc160_0083"
    INDEX 01 03:36:13
  TRACK 167 AUDIO
    TITLE "0:"
    INDEX 01 03:37:59
  TRACK 168 AUDIO
    TITLE "19:cjc160_0084"
    INDEX 01 03:38:23
  TRACK 169 AUDIO
    TITLE "0:"
    INDEX 01 03:40:46
  TRACK 170 AUDIO
    TITLE "18:cjc160_0085"
    INDEX 01 03:41:47
  TRACK 171 AUDIO
    TITLE "0:"
    INDEX 01 03:42:66
  TRACK 172 AUDIO
    TITLE "19:cjc160_0086"
    INDEX 01 03:43:32
  TRACK 173 AUDIO
    TITLE "0:"
    INDEX 01 03:48:18
  TRACK 174 AUDIO
    TITLE "18:cjc160_0087"
    INDEX 01 03:49:17
  TRACK 175 AUDIO
    TITLE "0:"
    INDEX 01 03:50:46
  TRACK 176 AUDIO
    TITLE "19:cjc160_0088"
    INDEX 01 03:51:12
  TRACK 177 AUDIO
    TITLE "0:"
    INDEX 01 03:53:23
  TRACK 178 AUDIO
    TITLE "18:cjc160_0089"
    INDEX 01 03:54:22
  TRACK 179 AUDIO
    TITLE "0:"
    INDEX 01 03:55:36
  TRACK 180 AUDIO
    TITLE "19:cjc160_0090"
    INDEX 01 03:55:73
  TRACK 181 AUDIO
    TITLE "0:"
    INDEX 01 03:58:07
  TRACK 182 AUDIO
    TITLE "18:cjc160_0091"
    INDEX 01 03:59:06
  TRACK 183 AUDIO
    TITLE "0:"
    INDEX 01 04:00:19
  TRACK 184 AUDIO
    TITLE "19:cjc160_0092"
    INDEX 01 04:00:58
  TRACK 185 AUDIO
    TITLE "0:"
    INDEX 01 04:02:26
  TRACK 186 AUDIO
    TITLE "18:cjc160_0093"
    INDEX 01 04:03:25
  TRACK 187 AUDIO
    TITLE "0:"
    INDEX 01 04:04:50
  TRACK 188 AUDIO
    TITLE "19:cjc160_0094"
    INDEX 01 04:05:12
  TRACK 189 AUDIO
    TITLE "0:"
    INDEX 01 04:08:58
  TRACK 190 AUDIO
    TITLE "18:cjc160_0095"
    INDEX 01 04:09:61
  TRACK 191 AUDIO
    TITLE "0:"
    INDEX 01 04:11:35
  TRACK 192 AUDIO
    TITLE "19:cjc160_0096"
    INDEX 01 04:11:74
  TRACK 193 AUDIO
    TITLE "0:"
    INDEX 01 04:14:21
  TRACK 194 AUDIO
    TITLE "18:cjc160_0097"
    INDEX 01 04:15:21
  TRACK 195 AUDIO
    TITLE "0:"
    INDEX 01 04:16:38
  TRACK 196 AUDIO
    TITLE "19:cjc160_0098"
    INDEX 01 04:16:71
  TRACK 197 AUDIO
    TITLE "0:"
    INDEX 01 04:19:28
  TRACK 198 AUDIO
    TITLE "18:cjc160_0099"
    INDEX 01 04:20:28
  TRACK 199 AUDIO
    TITLE "0:"
    INDEX 01 04:21:51
  TRACK 200 AUDIO
    TITLE "19:cjc160_0100"
    INDEX 01 04:22:15
  TRACK 201 AUDIO
    TITLE "0:"
    INDEX 01 04:24:25
  TRACK 202 AUDIO
    TITLE "18:cjc160_0101"
    INDEX 01 04:25:25
  TRACK 203 AUDIO
    TITLE "0:"
    INDEX 01 04:26:52
  TRACK 204 AUDIO
    TITLE "19:cjc160_0102"
    INDEX 01 04:27:10
  TRACK 205 AUDIO
    TITLE "0:"
    INDEX 01 04:28:53
  TRACK 206 AUDIO
    TITLE "18:cjc160_0103"
    INDEX 01 04:29:60
  TRACK 207 AUDIO
    TITLE "0:"
    INDEX 01 04:31:22
  TRACK 208 AUDIO
    TITLE "19:cjc160_0104"
    INDEX 01 04:31:57
  TRACK 209 AUDIO
    TITLE "0:"
    INDEX 01 04:34:32
  TRACK 210 AUDIO
    TITLE "18:cjc160_0105"
    INDEX 01 04:35:29
  TRACK 211 AUDIO
    TITLE "0:"
    INDEX 01 04:36:58
  TRACK 212 AUDIO
    TITLE "19:cjc160_0106"
    INDEX 01 04:37:24
  TRACK 213 AUDIO
    TITLE "0:"
    INDEX 01 04:39:49
  TRACK 214 AUDIO
    TITLE "18:cjc160_0107"
    INDEX 01 04:40:50
  TRACK 215 AUDIO
    TITLE "0:"
    INDEX 01 04:41:65
  TRACK 216 AUDIO
    TITLE "19:cjc160_0108"
    INDEX 01 04:42:27
  TRACK 217 AUDIO
    TITLE "0:"
    INDEX 01 04:44:52
  TRACK 218 AUDIO
    TITLE "18:cjc160_0109"
    INDEX 01 04:45:47
  TRACK 219 AUDIO
    TITLE "0:"
    INDEX 01 04:46:55
  TRACK 220 AUDIO
    TITLE "19:cjc160_0110"
    INDEX 01 04:47:15
  TRACK 221 AUDIO
    TITLE "0:"
    INDEX 01 04:49:14
  TRACK 222 AUDIO
    TITLE "18:cjc160_0111"
    INDEX 01 04:50:13
  TRACK 223 AUDIO
    TITLE "0:"
    INDEX 01 04:51:60
  TRACK 224 AUDIO
    TITLE "19:cjc160_0112"
    INDEX 01 04:52:22
  TRACK 225 AUDIO
    TITLE "0:"
    INDEX 01 04:54:29
  TRACK 226 AUDIO
    TITLE "18:cjc160_0113"
    INDEX 01 04:55:30
  TRACK 227 AUDIO
    TITLE "0:"
    INDEX 01 04:56:59
  TRACK 228 AUDIO
    TITLE "19:cjc160_0114"
    INDEX 01 04:57:23
  TRACK 229 AUDIO
    TITLE "0:"
    INDEX 01 05:00:17
  TRACK 230 AUDIO
    TITLE "18:cjc160_0115"
    INDEX 01 05:01:17
  TRACK 231 AUDIO
    TITLE "0:"
    INDEX 01 05:02:26
  TRACK 232 AUDIO
    TITLE "19:cjc160_0116"
    INDEX 01 05:02:61
  TRACK 233 AUDIO
    TITLE "0:"
    INDEX 01 05:04:54
  TRACK 234 AUDIO
    TITLE "18:cjc160_0117"
    INDEX 01 05:05:52
  TRACK 235 AUDIO
    TITLE "0:"
    INDEX 01 05:07:02
  TRACK 236 AUDIO
    TITLE "19:cjc160_0118"
    INDEX 01 05:07:37
  TRACK 237 AUDIO
    TITLE "0:"
    INDEX 01 05:11:35
  TRACK 238 AUDIO
    TITLE "18:cjc160_0119"
    INDEX 01 05:12:44
  TRACK 239 AUDIO
    TITLE "0:"
    INDEX 01 05:13:73
  TRACK 240 AUDIO
    TITLE "19:cjc160_0120"
    INDEX 01 05:14:35
  TRACK 241 AUDIO
    TITLE "0:"
    INDEX 01 05:17:41
  TRACK 242 AUDIO
    TITLE "18:cjc160_0121"
    INDEX 01 05:18:41
  TRACK 243 AUDIO
    TITLE "0:"
    INDEX 01 05:19:60
  TRACK 244 AUDIO
    TITLE "19:cjc160_0122"
    INDEX 01 05:20:22
  TRACK 245 AUDIO
    TITLE "0:"
    INDEX 01 05:22:54
  TRACK 246 AUDIO
    TITLE "18:cjc160_0123"
    INDEX 01 05:23:56
  TRACK 247 AUDIO
    TITLE "0:"
    INDEX 01 05:25:15
  TRACK 248 AUDIO
    TITLE "19:cjc160_0124"
    INDEX 01 05:25:57
  TRACK 249 AUDIO
    TITLE "0:"
    INDEX 01 05:28:02
  TRACK 250 AUDIO
    TITLE "18:cjc160_0125"
    INDEX 01 05:29:03
  TRACK 251 AUDIO
    TITLE "0:"
    INDEX 01 05:30:36
  TRACK 252 AUDIO
    TITLE "19:cjc160_0126"
    INDEX 01 05:30:73
  TRACK 253 AUDIO
    TITLE "0:"
    INDEX 01 05:32:57
  TRACK 254 AUDIO
    TITLE "18:cjc160_0127"
    INDEX 01 05:33:58
  TRACK 255 AUDIO
    TITLE "0:"
    INDEX 01 05:35:02
  TRACK 256 AUDIO
    TITLE "19:cjc160_0128"
    INDEX 01 05:35:39
  TRACK 257 AUDIO
    TITLE "0:"
    INDEX 01 05:37:38
  TRACK 258 AUDIO
    TITLE "18:cjc160_0129"
    INDEX 01 05:38:42
  TRACK 259 AUDIO
    TITLE "0:"
    INDEX 01 05:40:09
  TRACK 260 AUDIO
    TITLE "19:cjc160_0130"
    INDEX 01 05:40:48
  TRACK 261 AUDIO
    TITLE "0:"
    INDEX 01 05:43:62
  TRACK 262 AUDIO
    TITLE "18:cjc160_0131"
    INDEX 01 05:44:62
  TRACK 263 AUDIO
    TITLE "0:"
    INDEX 01 05:45:73
  TRACK 264 AUDIO
    TITLE "19:cjc160_0132"
    INDEX 01 05:46:45
  TRACK 265 AUDIO
    TITLE "0:"
    INDEX 01 05:49:08
  TRACK 266 AUDIO
    TITLE "18:cjc160_0133"
    INDEX 01 05:50:07
  TRACK 267 AUDIO
    TITLE "0:"
    INDEX 01 05:51:23
  TRACK 268 AUDIO
    TITLE "19:cjc160_0134"
    INDEX 01 05:51:60
  TRACK 269 AUDIO
    TITLE "0:"
    INDEX 01 05:53:70
  TRACK 270 AUDIO
    TITLE "18:cjc160_0135"
    INDEX 01 05:54:70
  TRACK 271 AUDIO
    TITLE "0:"
    INDEX 01 05:56:26
  TRACK 272 AUDIO
    TITLE "19:cjc160_0136"
    INDEX 01 05:56:63
  TRACK 273 AUDIO
    TITLE "0:"
    INDEX 01 05:59:01
  TRACK 274 AUDIO
    TITLE "18:cjc160_0137"
    INDEX 01 05:59:75
  TRACK 275 AUDIO
    TITLE "0:"
    INDEX 01 06:01:27
  TRACK 276 AUDIO
    TITLE "19:cjc160_0138"
    INDEX 01 06:01:64
  TRACK 277 AUDIO
    TITLE "0:"
    INDEX 01 06:04:55
  TRACK 278 AUDIO
    TITLE "18:cjc160_0139"
    INDEX 01 06:05:56
  TRACK 279 AUDIO
    TITLE "0:"
    INDEX 01 06:07:06
  TRACK 280 AUDIO
    TITLE "19:cjc160_0140"
    INDEX 01 06:07:45
  TRACK 281 AUDIO
    TITLE "0:"
    INDEX 01 06:09:66
  TRACK 282 AUDIO
    TITLE "18:cjc160_0141"
    INDEX 01 06:10:65
  TRACK 283 AUDIO
    TITLE "0:"
    INDEX 01 06:12:01
  TRACK 284 AUDIO
    TITLE "19:cjc160_0142"
    INDEX 01 06:12:40
  TRACK 285 AUDIO
    TITLE "0:"
    INDEX 01 06:14:37
  TRACK 286 AUDIO
    TITLE "18:cjc160_0143"
    INDEX 01 06:15:37
  TRACK 287 AUDIO
    TITLE "0:"
    INDEX 01 06:16:54
  TRACK 288 AUDIO
    TITLE "19:cjc160_0144"
    INDEX 01 06:17:14
  TRACK 289 AUDIO
    TITLE "0:"
    INDEX 01 06:19:25
  TRACK 290 AUDIO
    TITLE "18:cjc160_0145"
    INDEX 01 06:20:28
  TRACK 291 AUDIO
    TITLE "0:"
    INDEX 01 06:21:47
  TRACK 292 AUDIO
    TITLE "19:cjc160_0146"
    INDEX 01 06:22:09
  TRACK 293 AUDIO
    TITLE "0:"
    INDEX 01 06:24:28
  TRACK 294 AUDIO
    TITLE "18:cjc160_0147"
    INDEX 01 06:25:27
  TRACK 295 AUDIO
    TITLE "0:"
    INDEX 01 06:26:43
  TRACK 296 AUDIO
    TITLE "19:cjc160_0148"
    INDEX 01 06:27:05
  TRACK 297 AUDIO
    TITLE "0:"
    INDEX 01 06:29:51
  TRACK 298 AUDIO
    TITLE "18:cjc160_0149"
    INDEX 01 06:30:50
  TRACK 299 AUDIO
    TITLE "0:"
    INDEX 01 06:31:55
  TRACK 300 AUDIO
    TITLE "19:cjc160_0150"
    INDEX 01 06:32:18
  TRACK 301 AUDIO
    TITLE "0:"
    INDEX 01 06:34:28
  TRACK 302 AUDIO
    TITLE "18:cjc160_0151"
    INDEX 01 06:35:28
  TRACK 303 AUDIO
    TITLE "0:"
    INDEX 01 06:37:01
  TRACK 304 AUDIO
    TITLE "19:cjc160_0152"
    INDEX 01 06:37:36
  TRACK 305 AUDIO
    TITLE "0:"
    INDEX 01 06:40:07
  TRACK 306 AUDIO
    TITLE "18:cjc160_0153"
    INDEX 01 06:41:05
  TRACK 307 AUDIO
    TITLE "0:"
    INDEX 01 06:42:28
  TRACK 308 AUDIO
    TITLE "19:cjc160_0154"
    INDEX 01 06:42:71
  TRACK 309 AUDIO
    TITLE "0:"
    INDEX 01 06:45:10
  TRACK 310 AUDIO
    TITLE "18:cjc160_0155"
    INDEX 01 06:46:12
  TRACK 311 AUDIO
    TITLE "0:"
    INDEX 01 06:47:39
  TRACK 312 AUDIO
    TITLE "19:cjc160_0156"
    INDEX 01 06:48:01
  TRACK 313 AUDIO
    TITLE "0:"
    INDEX 01 06:50:63
  TRACK 314 AUDIO
    TITLE "18:cjc160_0157"
    INDEX 01 06:51:66
  TRACK 315 AUDIO
    TITLE "0:"
    INDEX 01 06:53:28
  TRACK 316 AUDIO
    TITLE "19:cjc160_0158"
    INDEX 01 06:53:65
  TRACK 317 AUDIO
    TITLE "0:"
    INDEX 01 06:56:16
  TRACK 318 AUDIO
    TITLE "18:cjc160_0159"
    INDEX 01 06:57:16
  TRACK 319 AUDIO
    TITLE "0:"
    INDEX 01 06:58:48
  TRACK 320 AUDIO
    TITLE "19:cjc160_0160"
    INDEX 01 06:59:13
  TRACK 321 AUDIO
    TITLE "0:"
    INDEX 01 07:01:29
  TRACK 322 AUDIO
    TITLE "18:cjc160_0161"
    INDEX 01 07:02:30
  TRACK 323 AUDIO
    TITLE "0:"
    INDEX 01 07:03:52
  TRACK 324 AUDIO
    TITLE "19:cjc160_0162"
    INDEX 01 07:04:16
  TRACK 325 AUDIO
    TITLE "0:"
    INDEX 01 07:06:26
  TRACK 326 AUDIO
    TITLE "18:cjc160_0163"
    INDEX 01 07:07:28
  TRACK 327 AUDIO
    TITLE "0:"
    INDEX 01 07:09:23
  TRACK 328 AUDIO
    TITLE "19:cjc160_0164"
    INDEX 01 07:09:60
  TRACK 329 AUDIO
    TITLE "0:"
    INDEX 01 07:12:21
  TRACK 330 AUDIO
    TITLE "18:cjc160_0165"
    INDEX 01 07:13:21
  TRACK 331 AUDIO
    TITLE "0:"
    INDEX 01 07:14:36
  TRACK 332 AUDIO
    TITLE "19:cjc160_0166"
    INDEX 01 07:14:73
  TRACK 333 AUDIO
    TITLE "0:"
    INDEX 01 07:17:30
  TRACK 334 AUDIO
    TITLE "18:cjc160_0167"
    INDEX 01 07:18:31
  TRACK 335 AUDIO
    TITLE "0:"
    INDEX 01 07:19:51
  TRACK 336 AUDIO
    TITLE "19:cjc160_0168"
    INDEX 01 07:20:13
  TRACK 337 AUDIO
    TITLE "0:"
    INDEX 01 07:22:06
  TRACK 338 AUDIO
    TITLE "18:cjc160_0169"
    INDEX 01 07:23:07
  TRACK 339 AUDIO
    TITLE "0:"
    INDEX 01 07:24:14
  TRACK 340 AUDIO
    TITLE "19:cjc160_0170"
    INDEX 01 07:24:52
  TRACK 341 AUDIO
    TITLE "0:"
    INDEX 01 07:27:19
  TRACK 342 AUDIO
    TITLE "18:cjc160_0171"
    INDEX 01 07:28:18
  TRACK 343 AUDIO
    TITLE "0:"
    INDEX 01 07:29:63
  TRACK 344 AUDIO
    TITLE "19:cjc160_0172"
    INDEX 01 07:30:23
  TRACK 345 AUDIO
    TITLE "0:"
    INDEX 01 07:32:65
  TRACK 346 AUDIO
    TITLE "18:cjc160_0173"
    INDEX 01 07:33:66
  TRACK 347 AUDIO
    TITLE "0:"
    INDEX 01 07:35:03
  TRACK 348 AUDIO
    TITLE "19:cjc160_0174"
    INDEX 01 07:35:40
  TRACK 349 AUDIO
    TITLE "0:"
    INDEX 01 07:37:41
  TRACK 350 AUDIO
    TITLE "18:cjc160_0175"
    INDEX 01 07:38:40
  TRACK 351 AUDIO
    TITLE "0:"
    INDEX 01 07:39:63
  TRACK 352 AUDIO
    TITLE "19:cjc160_0176"
    INDEX 01 07:40:27
  TRACK 353 AUDIO
    TITLE "0:"
    INDEX 01 07:42:54
  TRACK 354 AUDIO
    TITLE "18:cjc160_0177"
    INDEX 01 07:43:55
  TRACK 355 AUDIO
    TITLE "0:"
    INDEX 01 07:45:17
  TRACK 356 AUDIO
    TITLE "19:cjc160_0178"
    INDEX 01 07:45:56
  TRACK 357 AUDIO
    TITLE "0:"
    INDEX 01 07:47:64
  TRACK 358 AUDIO
    TITLE "18:cjc160_0179"
    INDEX 01 07:48:66
  TRACK 359 AUDIO
    TITLE "0:"
    INDEX 01 07:50:33
  TRACK 360 AUDIO
    TITLE "19:cjc160_0180"
    INDEX 01 07:50:71
  TRACK 361 AUDIO
    TITLE "0:"
    INDEX 01 07:52:60
  TRACK 362 AUDIO
    TITLE "18:cjc160_0181"
    INDEX 01 07:53:57
  TRACK 363 AUDIO
    TITLE "0:"
    INDEX 01 07:56:73
  TRACK 364 AUDIO
    TITLE "19:cjc160_0182"
    INDEX 01 07:57:35
  TRACK 365 AUDIO
    TITLE "0:"
    INDEX 01 08:00:28
  TRACK 366 AUDIO
    TITLE "18:cjc160_0183"
    INDEX 01 08:01:27
  TRACK 367 AUDIO
    TITLE "0:"
    INDEX 01 08:02:41
  TRACK 368 AUDIO
    TITLE "19:cjc160_0184"
    INDEX 01 08:03:05
  TRACK 369 AUDIO
    TITLE "0:"
    INDEX 01 08:05:51
  TRACK 370 AUDIO
    TITLE "18:cjc160_0185"
    INDEX 01 08:06:52
  TRACK 371 AUDIO
    TITLE "0:"
    INDEX 01 08:07:57
  TRACK 372 AUDIO
    TITLE "19:cjc160_0186"
    INDEX 01 08:08:18
  TRACK 373 AUDIO
    TITLE "0:"
    INDEX 01 08:10:20
  TRACK 374 AUDIO
    TITLE "18:cjc160_0187"
    INDEX 01 08:11:28
  TRACK 375 AUDIO
    TITLE "0:"
    INDEX 01 08:12:59
  TRACK 376 AUDIO
    TITLE "19:cjc160_0188"
    INDEX 01 08:13:19
  TRACK 377 AUDIO
    TITLE "0:"
    INDEX 01 08:15:06
  TRACK 378 AUDIO
    TITLE "18:cjc160_0189"
    INDEX 01 08:16:05
  TRACK 379 AUDIO
    TITLE "0:"
    INDEX 01 08:17:42
  TRACK 380 AUDIO
    TITLE "19:cjc160_0190"
    INDEX 01 08:18:02
  TRACK 381 AUDIO
    TITLE "0:"
    INDEX 01 08:21:09
  TRACK 382 AUDIO
    TITLE "18:cjc160_0191"
    INDEX 01 08:22:08
  TRACK 383 AUDIO
    TITLE "0:"
    INDEX 01 08:23:19
  TRACK 384 AUDIO
    TITLE "19:cjc160_0192"
    INDEX 01 08:23:58
  TRACK 385 AUDIO
    TITLE "0:"
    INDEX 01 08:25:69
  TRACK 386 AUDIO
    TITLE "18:cjc160_0193"
    INDEX 01 08:26:70
  TRACK 387 AUDIO
    TITLE "0:"
    INDEX 01 08:27:68
  TRACK 388 AUDIO
    TITLE "19:cjc160_0194"
    INDEX 01 08:28:40
  TRACK 389 AUDIO
    TITLE "0:"
    INDEX 01 08:30:55
  TRACK 390 AUDIO
    TITLE "18:cjc160_0195"
    INDEX 01 08:31:52
  TRACK 391 AUDIO
    TITLE "0:"
    INDEX 01 08:32:61
  TRACK 392 AUDIO
    TITLE "19:cjc160_0196"
    INDEX 01 08:33:25
  TRACK 393 AUDIO
    TITLE "0:"
    INDEX 01 08:35:34
  TRACK 394 AUDIO
    TITLE "18:cjc160_0197"
    INDEX 01 08:36:45
  TRACK 395 AUDIO
    TITLE "0:"
    INDEX 01 08:37:64
  TRACK 396 AUDIO
    TITLE "19:cjc160_0198"
    INDEX 01 08:38:25
  TRACK 397 AUDIO
    TITLE "0:"
    INDEX 01 08:40:47
  TRACK 398 AUDIO
    TITLE "18:cjc160_0199"
    INDEX 01 08:41:46
  TRACK 399 AUDIO
    TITLE "0:"
    INDEX 01 08:43:10
  TRACK 400 AUDIO
    TITLE "19:cjc160_0200"
    INDEX 01 08:43:47
  TRACK 401 AUDIO
    TITLE "0:"
    INDEX 01 08:47:18
